<?xml version="1.0" encoding="UTF-8" standalone="no"?>
<!-- Created with Inkscape (http://www.inkscape.org/) -->

<svg
   width="96.00341mm"
   height="11.060929mm"
   viewBox="0 0 96.003409 11.060929"
   version="1.1"
   id="svg1"
   xml:space="preserve"
   xmlns:inkscape="http://www.inkscape.org/namespaces/inkscape"
   xmlns:sodipodi="http://sodipodi.sourceforge.net/DTD/sodipodi-0.dtd"
   xmlns="http://www.w3.org/2000/svg"
   xmlns:svg="http://www.w3.org/2000/svg"><sodipodi:namedview
     id="namedview1"
     pagecolor="#ffffff"
     bordercolor="#000000"
     borderopacity="0.25"
     inkscape:showpageshadow="2"
     inkscape:pageopacity="0.0"
     inkscape:pagecheckerboard="0"
     inkscape:deskcolor="#d1d1d1"
     inkscape:document-units="mm"><inkscape:page
       x="9.564684e-07"
       y="2.6419589e-06"
       width="96.00341"
       height="11.060929"
       id="page4"
       margin="0"
       bleed="0" /></sodipodi:namedview><defs
     id="defs1"><clipPath
       clipPathUnits="userSpaceOnUse"
       id="clipPath10"><path
         d="M 0,841.89 H 595.276 V 0 H 0 Z"
         transform="translate(-347.76621,-698.96252)"
         id="path10" /></clipPath><clipPath
       clipPathUnits="userSpaceOnUse"
       id="clipPath12"><path
         d="M 0,841.89 H 595.276 V 0 H 0 Z"
         transform="translate(-316.51741,-689.47151)"
         id="path12" /></clipPath><clipPath
       clipPathUnits="userSpaceOnUse"
       id="clipPath14"><path
         d="M 0,841.89 H 595.276 V 0 H 0 Z"
         transform="translate(-347.11321,-692.00552)"
         id="path14" /></clipPath></defs><g
     id="layer-MC0"
     inkscape:groupmode="layer"
     inkscape:label="Vrstva 1"
     transform="matrix(0.26458333,0,0,0.26458335,-91.235797,-48.656063)"><path
       id="path9"
       d="M 0,0 H -7.111 L -10.994,-2.172 -15.03,0 h -63.686 c -1.521,0 -2.547,-0.258 -3.079,-0.775 -0.532,-0.517 -0.797,-1.399 -0.797,-2.645 0,-1.247 -0.041,-3.36 0.491,-3.891 0.532,-0.533 1.558,-0.798 3.079,-0.798 h 12.539 c 1.945,0 3.587,-0.16 4.925,-0.479 1.338,-0.319 2.417,-0.814 3.238,-1.482 0.82,-0.669 1.413,-1.513 1.778,-2.531 0.365,-1.019 0.547,-2.212 0.547,-3.579 v -1.095 c 0,-1.672 -0.182,-3.086 -0.547,-4.24 -0.365,-1.156 -0.95,-2.091 -1.756,-2.805 -0.806,-0.714 -1.862,-1.231 -3.168,-1.55 -1.308,-0.32 -2.889,-0.479 -4.743,-0.479 H -88.37 l 0.41,5.589 h 21.341 c 0.82,0 1.511,0.053 2.074,0.158 0.562,0.106 1.004,0.295 1.323,0.567 0.319,0.271 0.547,0.626 0.684,1.064 0.136,0.438 0.205,0.989 0.205,1.654 0,1.298 -0.289,2.808 -0.866,3.307 -0.578,0.498 -1.673,0.748 -3.284,0.748 h -12.722 c -1.885,0 -3.458,0.166 -4.719,0.5 -1.262,0.334 -2.28,0.849 -3.055,1.546 -0.776,0.698 -1.331,1.577 -1.665,2.638 -0.334,1.062 -0.501,2.305 -0.501,3.73 v 1.047 c 0,1.546 0.167,2.881 0.501,4.003 0.334,1.121 0.896,2.031 1.688,2.729 0.789,0.697 1.83,1.213 3.123,1.546 1.292,0.334 2.942,0.618 4.811,0.501 L 0,4.978 Z"
       style="fill:#8e9194;fill-opacity:1;fill-rule:nonzero;stroke:none"
       transform="matrix(1.3333333,0,0,-1.3333333,463.68827,190.57)"
       clip-path="url(#clipPath10)" /><path
       id="path11"
       d="M 0,0 C 0,0.985 -0.189,1.659 -0.565,2.023 -0.941,2.387 -1.623,2.569 -2.61,2.569 h -13.439 v -7.25 H -2.61 c 0.987,0 1.669,0.193 2.045,0.581 C -0.189,-3.713 0,-3.086 0,-2.217 Z m -16.049,-9.01 v -7.848 h -4.716 V 7.356 h 18.16 c 1.385,0 2.546,-0.124 3.485,-0.37 C 1.817,6.739 2.569,6.335 3.131,5.772 3.695,5.209 4.099,4.457 4.346,3.519 4.593,2.581 4.716,1.408 4.716,0 v -2.182 c 0,-1.244 -0.124,-2.3 -0.371,-3.168 C 4.098,-6.218 3.693,-6.922 3.129,-7.461 2.565,-8.001 1.813,-8.394 0.873,-8.64 -0.068,-8.887 -1.23,-9.01 -2.618,-9.01 Z"
       style="fill:#ed1c24;fill-opacity:1;fill-rule:nonzero;stroke:none"
       transform="matrix(1.3333333,0,0,-1.3333333,422.0232,203.22467)"
       clip-path="url(#clipPath12)" /><path
       id="path13"
       d="m 0,0 h -15.357 c -1.174,0 -1.966,-0.2 -2.376,-0.598 -0.411,-0.4 -0.616,-1.08 -0.616,-2.042 0,-0.962 0.205,-1.648 0.616,-2.059 0.41,-0.41 1.202,-0.615 2.376,-0.615 h 9.678 c 1.501,0 2.768,-0.124 3.801,-0.37 1.032,-0.246 1.865,-0.628 2.499,-1.144 0.633,-0.516 1.09,-1.167 1.372,-1.953 0.281,-0.786 0.422,-1.707 0.422,-2.763 v -0.845 c 0,-1.29 -0.141,-2.381 -0.422,-3.273 -0.282,-0.892 -0.733,-1.613 -1.355,-2.164 -0.622,-0.551 -1.437,-0.95 -2.446,-1.197 -1.009,-0.246 -2.229,-0.369 -3.66,-0.369 h -17.104 l 0.317,4.786 h 16.47 c 0.634,0 1.167,0.041 1.601,0.122 0.435,0.082 0.775,0.227 1.02,0.437 0.248,0.21 0.423,0.484 0.529,0.822 0.106,0.338 0.158,0.763 0.158,1.277 0,1.001 -0.223,1.695 -0.668,2.08 -0.446,0.384 -1.291,0.577 -2.534,0.577 h -9.819 c -1.456,0 -2.67,0.128 -3.643,0.386 -0.974,0.257 -1.76,0.654 -2.358,1.193 -0.599,0.538 -1.027,1.217 -1.285,2.036 -0.258,0.819 -0.387,1.779 -0.387,2.879 v 0.808 c 0,1.193 0.129,2.223 0.387,3.089 0.258,0.866 0.692,1.568 1.303,2.106 0.609,0.539 1.413,0.937 2.41,1.194 0.997,0.258 2.235,0.386 3.714,0.386 h 1.018 l 3.998,-2.172 3.863,2.172 h 6.554 z"
       style="fill:#8e9194;fill-opacity:1;fill-rule:nonzero;stroke:none"
       transform="matrix(1.3333333,0,0,-1.3333333,462.8176,199.846)"
       clip-path="url(#clipPath14)" /><g
       id="g14"
       aria-label="Střední průmyslová škola&#10;na Proseku"
       transform="matrix(1.3333333,0,0,1.3333333,477.4596,200.33253)"><path
         id="path15"
         d="m 8.3681906,-1.5941266 v -2.9765625 c 0,-1.3476562 -0.5273437,-1.59375 -1.6523437,-1.59375 H 2.9424094 c -0.4570313,0 -0.5390625,-0.09375 -0.5390625,-0.5273437 v -2.1914063 c 0,-0.4335937 0.082031,-0.5273437 0.5390625,-0.5273437 h 3.3164062 c 0.4570313,0 0.5390625,0.09375 0.5390625,0.5273437 v 0.8320313 c 0,0.28125 0.1289063,0.3984375 0.4101563,0.3984375 h 0.7382812 c 0.2929688,0 0.4101563,-0.1171875 0.4101563,-0.3984375 v -1.2421875 c 0,-1.3359377 -0.5273438,-1.5937497 -1.6640625,-1.5937497 h -4.171875 c -1.1367188,0 -1.66406252,0.257812 -1.66406252,1.5937497 v 2.9882812 c 0,1.3476563 0.52734372,1.59375 1.66406252,1.59375 h 3.75 c 0.4570312,0 0.5507812,0.09375 0.5507812,0.5390625 v 2.1796875 c 0,0.4335938 -0.09375,0.5273438 -0.5507812,0.5273438 H 2.9541281 c -0.4453125,0 -0.5390625,-0.09375 -0.5390625,-0.5273438 v -0.84375 c 0,-0.28125 -0.1171875,-0.4101562 -0.4101562,-0.4101562 H 1.2783469 c -0.28125002,0 -0.39843752,0.1289062 -0.39843752,0.4101562 v 1.2421875 c 0,1.33593754 0.52734372,1.5937500375 1.65234372,1.5937500375 h 4.1835938 c 1.125,0 1.6523437,-0.2578124975 1.6523437,-1.5937500375 z m 5.7949224,0.5390625 c 0,-0.2929687 -0.117188,-0.4101562 -0.410157,-0.4101562 h -0.773437 c -0.445313,0 -0.539063,-0.09375 -0.539063,-0.5273438 v -4.828125 h 1.3125 c 0.292969,0 0.410157,-0.1171875 0.410157,-0.3984375 v -0.6679687 c 0,-0.2929688 -0.117188,-0.4101563 -0.410157,-0.4101563 h -1.3125 v -2.6953124 c 0,-0.292969 -0.117187,-0.410156 -0.410156,-0.410156 h -0.738281 c -0.28125,0 -0.398438,0.117187 -0.398438,0.410156 v 2.6953124 H 9.920925 c -0.28125,0 -0.4101562,0.1171875 -0.4101562,0.4101563 v 0.6679687 c 0,0.28125 0.1289062,0.3984375 0.4101562,0.3984375 h 0.972656 v 5.2265625 c 0,1.33593754 0.527344,1.5937500375 1.652344,1.5937500375 h 1.207031 c 0.292969,0 0.410157,-0.1171874975 0.410157,-0.4101562475 z m 2.689453,-4.9921875 c 0,-0.5039062 0,-0.7734375 0.539062,-0.7734375 h 2.542969 c 0.292969,0 0.410156,-0.1171875 0.410156,-0.3984375 v -0.6679687 c 0,-0.2929688 -0.117187,-0.4101563 -0.410156,-0.4101563 h -2.976563 c -1.136718,0 -1.664062,0.2578125 -1.664062,1.6054688 v 6.28124999 c 0,0.29296875 0.117187,0.4101562475 0.410156,0.4101562475 h 0.738281 c 0.28125,0 0.410157,-0.1171874975 0.410157,-0.4101562475 z m 3.011718,-5.1093754 c -0.164062,-0.234375 -0.328125,-0.257812 -0.574218,-0.09375 l -1.148438,0.796875 -1.136719,-0.796875 c -0.246093,-0.164062 -0.410156,-0.140625 -0.574218,0.09375 l -0.175782,0.222657 c -0.164062,0.222656 -0.128906,0.386718 0.09375,0.574218 l 1.523438,1.2070317 c 0.08203,0.058594 0.152344,0.09375 0.257812,0.09375 h 0.03516 c 0.105468,0 0.175781,-0.035156 0.246093,-0.09375 l 1.546875,-1.2070317 c 0.222657,-0.1875 0.257813,-0.351562 0.08203,-0.574218 z m 8.185547,10.1015629 c 0,-0.2929687 -0.117187,-0.4101562 -0.398437,-0.4101562 h -3.890625 c -0.667969,0 -0.808594,-0.011719 -0.808594,-0.5273438 v -1.21875 h 3.773438 c 1.136718,0 1.664062,-0.2578125 1.664062,-1.6054687 v -1.875 c 0,-1.3476563 -0.527344,-1.6054688 -1.664062,-1.6054688 h -3.667969 c -1.125,0 -1.652344,0.2578125 -1.652344,1.6054688 v 5.0976562 c 0,1.33593754 0.527344,1.5937500375 1.652344,1.5937500375 h 4.59375 c 0.28125,0 0.398437,-0.1171874975 0.398437,-0.4101562475 z m -1.746093,-3.6210937 h -3.351563 v -1.6171875 c 0,-0.4335938 0.09375,-0.5273438 0.550781,-0.5273438 h 2.800782 c 0.457031,0 0.539062,0.09375 0.539062,0.5273438 v 1.0898437 c 0,0.4335938 -0.08203,0.5273438 -0.539062,0.5273438 z m 10.546875,3.0820312 V -11.660533 c 0,-0.28125 -0.128907,-0.410156 -0.410157,-0.410156 h -0.726562 c -0.28125,0 -0.410156,0.128906 -0.410156,0.410156 v 3.3632814 h -3.785157 c -1.125,0 -1.652343,0.2578125 -1.652343,1.6054688 v 5.0976562 c 0,1.33593754 0.527343,1.5937500375 1.652343,1.5937500375 h 3.667969 c 1.136719,0 1.664063,-0.2578124975 1.664063,-1.5937500375 z m -2.085938,0.1289063 h -2.800781 c -0.457031,0 -0.550781,-0.09375 -0.550781,-0.5273438 v -4.3007812 c 0,-0.4335938 0.09375,-0.5273438 0.550781,-0.5273438 h 3.339844 v 4.828125 c 0,0.4335938 -0.08203,0.5273438 -0.539063,0.5273438 z m 10.769531,-5.2265625 c 0,-1.3476563 -0.527343,-1.6054688 -1.664062,-1.6054688 h -3.65625 c -1.136719,0 -1.664063,0.2578125 -1.664063,1.6054688 v 6.28124999 c 0,0.29296875 0.117188,0.4101562475 0.410157,0.4101562475 h 0.738281 c 0.28125,0 0.410156,-0.1171874975 0.410156,-0.4101562475 V -6.2933453 c 0,-0.4335938 0.08203,-0.5273438 0.539063,-0.5273438 h 2.800781 c 0.457031,0 0.550781,0.09375 0.550781,0.5273438 v 5.88281249 c 0,0.29296875 0.117188,0.4101562475 0.398438,0.4101562475 h 0.726562 c 0.292969,0 0.410156,-0.1171874975 0.410156,-0.4101562475 z m 4.022461,-1.1953125 c 0,-0.2929688 -0.117187,-0.4101563 -0.398437,-0.4101563 h -2.203125 c -0.292969,0 -0.410157,0.1171875 -0.410157,0.4101563 v 0.6679687 c 0,0.28125 0.117188,0.3984375 0.410157,0.3984375 h 1.066406 v 6.41015629 c 0,0.29296875 0.117187,0.4101562475 0.410156,0.4101562475 h 0.726563 c 0.28125,0 0.398437,-0.1171874975 0.398437,-0.4101562475 z m 0.421875,-3.6093747 c -0.164062,-0.222657 -0.328125,-0.257813 -0.550781,-0.08203 l -1.734375,1.324219 c -0.234375,0.175781 -0.257813,0.3398439 -0.09375,0.5859377 l 0.164062,0.2460937 c 0.164063,0.234375 0.328125,0.2695313 0.574219,0.1171875 l 1.910156,-1.1367189 c 0.246094,-0.128906 0.28125,-0.292969 0.105469,-0.527344 z m 0,0"
         style="fill:#393536;fill-opacity:1;fill-rule:nonzero;stroke:none" /><path
         id="path16"
         d="m 61.172878,-1.5941266 v -5.0976562 c 0,-1.3476563 -0.527344,-1.6054688 -1.664062,-1.6054688 h -3.65625 c -1.136719,0 -1.664063,0.2578125 -1.664063,1.6054688 v 9.3046875 c 0,0.28125 0.117188,0.3984375 0.410156,0.3984375 h 0.738282 c 0.28125,0 0.410156,-0.1171875 0.410156,-0.3984375 V -3.765625e-4 h 3.761719 c 1.136718,0 1.664062,-0.2578124975 1.664062,-1.5937500375 z m -2.085937,0.1289063 h -3.339844 v -4.828125 c 0,-0.4335938 0.08203,-0.5273438 0.539062,-0.5273438 h 2.800782 c 0.457031,0 0.550781,0.09375 0.550781,0.5273438 v 4.3007812 c 0,0.4335938 -0.09375,0.5273438 -0.550781,0.5273438 z m 5.334961,-4.828125 c 0,-0.4335938 0.08203,-0.5273438 0.539062,-0.5273438 h 2.542969 c 0.292969,0 0.410156,-0.1171875 0.410156,-0.3984375 v -0.6679687 c 0,-0.2929688 -0.117187,-0.4101563 -0.410156,-0.4101563 H 64.52737 c -1.136718,0 -1.664062,0.2578125 -1.664062,1.6054688 v 6.28124999 c 0,0.29296875 0.117187,0.4101562475 0.410156,0.4101562475 h 0.738281 c 0.28125,0 0.410157,-0.1171874975 0.410157,-0.4101562475 z m 11.548828,4.6992187 v -6.2929687 c 0,-0.2929688 -0.117188,-0.4101563 -0.410157,-0.4101563 h -0.726562 c -0.28125,0 -0.398438,0.1171875 -0.398438,0.4101563 v 5.8945312 c 0,0.4335938 -0.09375,0.5273438 -0.550781,0.5273438 h -2.800781 c -0.457031,0 -0.539063,-0.09375 -0.539063,-0.5273438 v -5.8945312 c 0,-0.2929688 -0.128906,-0.4101563 -0.410156,-0.4101563 h -0.738281 c -0.292969,0 -0.410156,0.1171875 -0.410156,0.4101563 v 6.2929687 c 0,1.33593754 0.527343,1.5937500375 1.664062,1.5937500375 h 3.65625 c 1.136719,0 1.664063,-0.2578124975 1.664063,-1.5937500375 z m -2.214844,-8.4257814 c 0,-0.738281 -0.515625,-1.265625 -1.253906,-1.265625 -0.75,0 -1.277344,0.515625 -1.277344,1.265625 0,0.7617189 0.503906,1.2773439 1.265625,1.2773439 0.75,0 1.265625,-0.515625 1.265625,-1.2773439 z m -1.710938,0 c 0,-0.246094 0.199219,-0.421875 0.445313,-0.421875 0.257812,0 0.421875,0.1875 0.421875,0.421875 0,0.2578127 -0.164063,0.4453127 -0.421875,0.4453127 -0.257813,0 -0.445313,-0.1875 -0.445313,-0.4453127 z m 17.170899,3.3281252 c 0,-1.3476563 -0.527344,-1.6054688 -1.664063,-1.6054688 h -2.835937 c -0.574219,0 -0.984375,0.082031 -1.253906,0.609375 -0.269532,-0.5273437 -0.703125,-0.609375 -1.277344,-0.609375 h -2.847656 c -1.136719,0 -1.664063,0.2578125 -1.664063,1.6054688 v 6.28124999 c 0,0.29296875 0.117188,0.4101562475 0.410156,0.4101562475 h 0.738282 c 0.28125,0 0.410156,-0.1171874975 0.410156,-0.4101562475 V -6.2933453 c 0,-0.4335938 0.08203,-0.5273438 0.539062,-0.5273438 h 2.378907 c 0.457031,0 0.550781,0.09375 0.550781,0.5273438 v 5.88281249 c 0,0.29296875 0.117187,0.4101562475 0.398437,0.4101562475 h 0.726563 c 0.292969,0 0.410156,-0.1171874975 0.410156,-0.4101562475 V -6.2933453 c 0,-0.4335938 0.09375,-0.5273438 0.539063,-0.5273438 h 2.355468 c 0.457032,0 0.539063,0.09375 0.539063,0.5273438 v 5.88281249 c 0,0.29296875 0.128906,0.4101562475 0.410156,0.4101562475 h 0.726563 c 0.28125,0 0.410156,-0.1171874975 0.410156,-0.4101562475 z m 7.898437,-1.2070313 c 0.07031,-0.2578125 -0.01172,-0.3984375 -0.28125,-0.3984375 h -0.738281 c -0.304687,0 -0.457031,0.1054688 -0.550781,0.3984375 l -1.722656,5.4960938 -1.980469,-5.5195313 c -0.105469,-0.2695312 -0.257813,-0.375 -0.5625,-0.375 h -0.832031 c -0.269532,0 -0.363282,0.140625 -0.269532,0.375 l 2.882813,7.93359379 -0.773438,2.61328121 c -0.07031,0.2578125 0.03516,0.3867188 0.304688,0.3867188 h 0.539062 c 0.304688,0 0.457032,-0.1054688 0.550782,-0.3867188 z m 7.494146,6.3046875 v -1.6640625 c 0,-1.3476562 -0.52735,-1.59375 -1.65235,-1.59375 h -2.976561 c -0.328125,0 -0.410156,-0.1523437 -0.410156,-0.5273437 v -0.9140625 c 0,-0.4335938 0.09375,-0.5273438 0.550777,-0.5273438 h 3.70313 c 0.29297,0 0.41016,-0.1171875 0.41016,-0.3984375 v -0.6679687 c 0,-0.2929688 -0.11719,-0.4101563 -0.41016,-0.4101563 h -4.125001 c -1.136719,0 -1.664063,0.2578125 -1.664063,1.6054688 v 1.6992187 c 0,1.3476563 0.527344,1.59375 1.664063,1.59375 h 2.812501 c 0.45703,0 0.55078,0.09375 0.55078,0.5273438 v 0.8789062 c 0,0.4335938 -0.0937,0.5273438 -0.55078,0.5273438 h -3.726564 c -0.28125,0 -0.398437,0.1171875 -0.398437,0.4101562 v 0.64453129 c 0,0.29296875 0.117187,0.4101562475 0.398437,0.4101562475 h 4.171874 c 1.125,0 1.65235,-0.2578124975 1.65235,-1.5937500375 z m 4.73437,0.5390625 c 0,-0.2929687 -0.11719,-0.4101562 -0.39844,-0.4101562 h -0.77343 c -0.45704,0 -0.53907,-0.09375 -0.53907,-0.5273438 v -9.6679689 c 0,-0.28125 -0.1289,-0.410156 -0.41015,-0.410156 h -0.73828 c -0.29297,0 -0.41016,0.128906 -0.41016,0.410156 v 10.0664064 c 0,1.33593754 0.52734,1.5937500375 1.66406,1.5937500375 h 1.20703 c 0.28125,0 0.39844,-0.1171874975 0.39844,-0.4101562475 z m 7.98633,-0.5390625 v -5.0976562 c 0,-1.3476563 -0.52735,-1.6054688 -1.66406,-1.6054688 h -3.66797 c -1.125,0 -1.65235,0.2578125 -1.65235,1.6054688 v 5.0976562 c 0,1.33593754 0.52735,1.5937500375 1.65235,1.5937500375 h 3.66797 c 1.13671,0 1.66406,-0.2578124975 1.66406,-1.5937500375 z m -2.08594,0.1289063 h -2.80078 c -0.45703,0 -0.55078,-0.09375 -0.55078,-0.5273438 v -4.3007812 c 0,-0.4335938 0.0937,-0.5273438 0.55078,-0.5273438 h 2.80078 c 0.45703,0 0.53906,0.09375 0.53906,0.5273438 v 4.3007812 c 0,0.4335938 -0.082,0.5273438 -0.53906,0.5273438 z m 10.0752,-6.4335938 c 0.0703,-0.2578125 -0.0117,-0.3984375 -0.28125,-0.3984375 h -0.78516 c -0.30469,0 -0.45703,0.1054688 -0.55078,0.3984375 l -1.85156,6.1289063 -1.82813,-6.1289063 c -0.082,-0.2929687 -0.23437,-0.3984375 -0.53906,-0.3984375 h -0.83203 c -0.26953,0 -0.36328,0.140625 -0.28125,0.3984375 l 2.41406,7.52343754 c 0.082,0.28125 0.23437,0.38671875 0.53906,0.38671875 h 1.06641 c 0.30469,0 0.45703,-0.10546875 0.55078,-0.38671875 z m 7.91894,6.3046875 v -5.0976562 c 0,-1.3476563 -0.52734,-1.6054688 -1.65234,-1.6054688 h -4.75781 c -0.28125,0 -0.41016,0.1171875 -0.41016,0.4101563 v 0.6679687 c 0,0.28125 0.12891,0.3984375 0.41016,0.3984375 h 4.31249 c 0.45704,0 0.55079,0.09375 0.55079,0.5273438 v 1.1015625 h -3.77344 c -1.13672,0 -1.66406,0.2578125 -1.66406,1.6054687 v 1.9921875 c 0,1.33593754 0.52734,1.5937500375 1.66406,1.5937500375 h 3.66797 c 1.125,0 1.65234,-0.2578124975 1.65234,-1.5937500375 z m -2.09766,0.1289063 h -2.80078 c -0.45703,0 -0.55078,-0.09375 -0.55078,-0.5273438 v -1.1953125 c 0,-0.4335937 0.0937,-0.5273437 0.55078,-0.5273437 h 3.35157 v 1.7226562 c 0,0.4335938 -0.0937,0.5273438 -0.55079,0.5273438 z m 0.29297,-10.0312497 c -0.17578,-0.222657 -0.33984,-0.257813 -0.5625,-0.08203 l -1.74609,1.324219 c -0.23438,0.164063 -0.25781,0.3281252 -0.0937,0.5507814 l 0.17578,0.2460938 c 0.17578,0.2460937 0.33984,0.2695312 0.57422,0.1171875 l 1.91016,-1.1249997 c 0.23437,-0.140625 0.26953,-0.304688 0.10546,-0.527344 z m 0,0"
         style="fill:#393536;fill-opacity:1;fill-rule:nonzero;stroke:none" /><path
         id="path17"
         d="m 144.18557,-1.5941266 v -1.2304687 c 0,-1.734375 -0.33984,-2.0273438 -1.65234,-2.0273438 h -2.78906 c -0.50391,0 -0.59766,-0.09375 -0.59766,-0.5273437 v -0.9140625 c 0,-0.4335938 0.0937,-0.5273438 0.55078,-0.5273438 h 3.70313 c 0.29297,0 0.41015,-0.1171875 0.41015,-0.3984375 v -0.6679687 c 0,-0.2929688 -0.11718,-0.4101563 -0.41015,-0.4101563 h -4.125 c -1.13672,0 -1.66407,0.2578125 -1.66407,1.6054688 v 1.2304687 c 0,1.7460938 0.32813,2.0625 1.66407,2.0625 h 2.64843 c 0.60938,0 0.71485,0.035156 0.71485,0.5273438 v 0.7265625 c 0,0.5039062 -0.0234,0.6796875 -0.55078,0.6796875 h -3.72657 c -0.28125,0 -0.39843,0.1171875 -0.39843,0.4101562 v 0.64453129 c 0,0.29296875 0.11718,0.4101562475 0.39843,0.4101562475 h 4.17188 c 1.125,0 1.65234,-0.2578124975 1.65234,-1.5937500375 z m -1.57031,-9.5625004 c -0.16406,-0.234375 -0.32812,-0.257812 -0.57422,-0.09375 l -1.13672,0.796875 -1.14843,-0.796875 c -0.2461,-0.164062 -0.41016,-0.140625 -0.57422,0.09375 l -0.16407,0.222657 c -0.16406,0.222656 -0.14062,0.386718 0.082,0.574218 l 1.52343,1.2070317 c 0.082,0.058594 0.15235,0.09375 0.25782,0.09375 h 0.0352 c 0.10547,0 0.17578,-0.035156 0.25781,-0.09375 l 1.53516,-1.2070317 c 0.22266,-0.1875 0.25781,-0.351562 0.0937,-0.574218 z m 6.77051,7.0429692 2.39062,-3.8320313 c 0.12891,-0.2109375 0.0586,-0.3515625 -0.1875,-0.3515625 h -0.85547 c -0.30468,0 -0.46875,0.09375 -0.62109,0.3515625 l -1.94531,3.1054688 h -0.9375 v -6.8203127 c 0,-0.28125 -0.11719,-0.410156 -0.41016,-0.410156 h -0.73828 c -0.28125,0 -0.39844,0.128906 -0.39844,0.410156 v 11.25000019 c 0,0.29296875 0.11719,0.4101562475 0.39844,0.4101562475 h 0.73828 c 0.29297,0 0.41016,-0.1171874975 0.41016,-0.4101562475 V -3.3753766 h 0.97265 l 1.85157,3.02343754 c 0.15234,0.2578125 0.3164,0.3515624975 0.62109,0.3515624975 h 0.85547 c 0.25781,0 0.32812,-0.1406249975 0.19922,-0.3515624975 z m 10.47656,2.5195312 v -5.0976562 c 0,-1.3476563 -0.52734,-1.6054688 -1.66406,-1.6054688 h -3.66797 c -1.125,0 -1.65234,0.2578125 -1.65234,1.6054688 v 5.0976562 c 0,1.33593754 0.52734,1.5937500375 1.65234,1.5937500375 h 3.66797 c 1.13672,0 1.66406,-0.2578124975 1.66406,-1.5937500375 z m -2.08594,0.1289063 h -2.80078 c -0.45703,0 -0.55078,-0.09375 -0.55078,-0.5273438 v -4.3007812 c 0,-0.4335938 0.0937,-0.5273438 0.55078,-0.5273438 h 2.80078 c 0.45703,0 0.53907,0.09375 0.53907,0.5273438 v 4.3007812 c 0,0.4335938 -0.082,0.5273438 -0.53907,0.5273438 z m 7.04004,0.4101562 c 0,-0.2929687 -0.11718,-0.4101562 -0.39843,-0.4101562 h -0.77344 c -0.45703,0 -0.53906,-0.09375 -0.53906,-0.5273438 v -9.6679689 c 0,-0.28125 -0.12891,-0.410156 -0.41016,-0.410156 h -0.73828 c -0.29297,0 -0.41016,0.128906 -0.41016,0.410156 v 10.0664064 c 0,1.33593754 0.52735,1.5937500375 1.66406,1.5937500375 h 1.20704 c 0.28125,0 0.39843,-0.1171874975 0.39843,-0.4101562475 z m 7.84571,-0.5390625 v -5.0976562 c 0,-1.3476563 -0.52735,-1.6054688 -1.65235,-1.6054688 h -4.75781 c -0.28125,0 -0.41016,0.1171875 -0.41016,0.4101563 v 0.6679687 c 0,0.28125 0.12891,0.3984375 0.41016,0.3984375 h 4.3125 c 0.45703,0 0.55078,0.09375 0.55078,0.5273438 v 1.1015625 h -3.77344 c -1.13672,0 -1.66406,0.2578125 -1.66406,1.6054687 v 1.9921875 c 0,1.33593754 0.52734,1.5937500375 1.66406,1.5937500375 h 3.66797 c 1.125,0 1.65235,-0.2578124975 1.65235,-1.5937500375 z m -2.09766,0.1289063 h -2.80078 c -0.45703,0 -0.55078,-0.09375 -0.55078,-0.5273438 v -1.1953125 c 0,-0.4335937 0.0937,-0.5273437 0.55078,-0.5273437 h 3.35156 v 1.7226562 c 0,0.4335938 -0.0937,0.5273438 -0.55078,0.5273438 z M 7.8291281,11.407827 c 0,-1.347657 -0.5273437,-1.6054692 -1.6640625,-1.6054692 h -3.65625 c -1.1367187,0 -1.66406247,0.2578122 -1.66406247,1.6054692 v 6.28125 c 0,0.292968 0.1171875,0.410156 0.41015627,0.410156 h 0.7382812 c 0.28125,0 0.4101563,-0.117188 0.4101563,-0.410156 v -5.882813 c 0,-0.433594 0.082031,-0.527344 0.5390625,-0.527344 h 2.8007812 c 0.4570313,0 0.5507813,0.09375 0.5507813,0.527344 v 5.882813 c 0,0.292968 0.1171875,0.410156 0.3984375,0.410156 h 0.7265625 c 0.2929687,0 0.4101562,-0.117188 0.4101562,-0.410156 z m 8.5341799,5.097656 v -5.097656 c 0,-1.347657 -0.527344,-1.6054692 -1.652344,-1.6054692 H 9.9531516 c -0.28125,0 -0.4101563,0.1171875 -0.4101563,0.4101562 v 0.667969 c 0,0.28125 0.1289063,0.398437 0.4101563,0.398437 h 4.3125004 c 0.457031,0 0.550781,0.09375 0.550781,0.527344 v 1.101563 h -3.773438 c -1.1367184,0 -1.6640622,0.257812 -1.6640622,1.605468 v 1.992188 c 0,1.335937 0.5273438,1.59375 1.6640622,1.59375 h 3.667969 c 1.125,0 1.652344,-0.257813 1.652344,-1.59375 z m -2.097656,0.128906 H 11.46487 c -0.457031,0 -0.550781,-0.09375 -0.550781,-0.527344 v -1.195312 c 0,-0.433594 0.09375,-0.527344 0.550781,-0.527344 h 3.351563 v 1.722656 c 0,0.433594 -0.09375,0.527344 -0.550781,0.527344 z m 8.393554,-2.707031 h 4.136719 c 1.136719,0 1.664063,-0.257813 1.664063,-1.605469 V 8.8062641 c 0,-1.3359375 -0.527344,-1.59375 -1.664063,-1.59375 h -5.285156 c -0.292969,0 -0.410156,0.1171875 -0.410156,0.4101562 V 17.689077 c 0,0.292968 0.117187,0.410156 0.410156,0.410156 h 0.738281 c 0.28125,0 0.410156,-0.117188 0.410156,-0.410156 z M 26.37405,12.462514 H 22.659206 V 8.6890766 h 3.714844 c 0.457031,0 0.550781,0.09375 0.550781,0.5273437 V 11.93517 c 0,0.433594 -0.05859,0.527344 -0.550781,0.527344 z m 5.121094,-0.65625 c 0,-0.433594 0.08203,-0.527344 0.539062,-0.527344 h 2.542969 c 0.292969,0 0.410156,-0.117187 0.410156,-0.398437 v -0.667969 c 0,-0.2929687 -0.117187,-0.4101562 -0.410156,-0.4101562 h -2.976562 c -1.136719,0 -1.664063,0.2578122 -1.664063,1.6054692 v 6.28125 c 0,0.292968 0.117188,0.410156 0.410156,0.410156 h 0.738282 c 0.28125,0 0.410156,-0.117188 0.410156,-0.410156 z m 11.537109,4.699219 v -5.097656 c 0,-1.347657 -0.527344,-1.6054692 -1.664062,-1.6054692 h -3.667969 c -1.125,0 -1.652344,0.2578122 -1.652344,1.6054692 v 5.097656 c 0,1.335937 0.527344,1.59375 1.652344,1.59375 h 3.667969 c 1.136718,0 1.664062,-0.257813 1.664062,-1.59375 z m -2.085937,0.128906 h -2.800782 c -0.457031,0 -0.550781,-0.09375 -0.550781,-0.527344 v -4.300781 c 0,-0.433594 0.09375,-0.527344 0.550781,-0.527344 h 2.800782 c 0.457031,0 0.539062,0.09375 0.539062,0.527344 v 4.300781 c 0,0.433594 -0.08203,0.527344 -0.539062,0.527344 z M 51.080105,16.505483 V 14.84142 c 0,-1.347656 -0.527344,-1.59375 -1.652344,-1.59375 h -2.976563 c -0.328125,0 -0.410156,-0.152343 -0.410156,-0.527343 v -0.914063 c 0,-0.433594 0.09375,-0.527344 0.550781,-0.527344 h 3.703125 c 0.292969,0 0.410157,-0.117187 0.410157,-0.398437 v -0.667969 c 0,-0.2929687 -0.117188,-0.4101562 -0.410157,-0.4101562 h -4.125 c -1.136718,0 -1.664062,0.2578122 -1.664062,1.6054692 v 1.699218 c 0,1.347657 0.527344,1.59375 1.664062,1.59375 h 2.8125 c 0.457032,0 0.550782,0.09375 0.550782,0.527344 v 0.878906 c 0,0.433594 -0.09375,0.527344 -0.550782,0.527344 h -3.726562 c -0.28125,0 -0.398438,0.117188 -0.398438,0.410156 v 0.644532 c 0,0.292968 0.117188,0.410156 0.398438,0.410156 h 4.171875 c 1.125,0 1.652344,-0.257813 1.652344,-1.59375 z m 8.097656,0.539062 c 0,-0.292968 -0.117188,-0.410156 -0.398438,-0.410156 h -3.890625 c -0.667968,0 -0.808593,-0.01172 -0.808593,-0.527344 v -1.21875 h 3.773437 c 1.136719,0 1.664063,-0.257812 1.664063,-1.605468 v -1.875 c 0,-1.347657 -0.527344,-1.6054692 -1.664063,-1.6054692 h -3.667969 c -1.125,0 -1.652343,0.2578122 -1.652343,1.6054692 v 5.097656 c 0,1.335937 0.527343,1.59375 1.652343,1.59375 h 4.59375 c 0.28125,0 0.398438,-0.117188 0.398438,-0.410156 z m -1.746094,-3.621093 h -3.351562 v -1.617188 c 0,-0.433594 0.09375,-0.527344 0.550781,-0.527344 h 2.800781 c 0.457031,0 0.539063,0.09375 0.539063,0.527344 v 1.089844 c 0,0.433594 -0.08203,0.527344 -0.539063,0.527344 z m 7.3125,0.5625 2.390625,-3.832032 c 0.128906,-0.2109372 0.05859,-0.3515622 -0.1875,-0.3515622 h -0.855469 c -0.304687,0 -0.46875,0.09375 -0.621093,0.3515622 l -1.945313,3.105469 h -0.9375 V 6.4390766 c 0,-0.28125 -0.117187,-0.4101563 -0.410156,-0.4101563 H 61.43948 c -0.28125,0 -0.398438,0.1289063 -0.398438,0.4101563 V 17.689077 c 0,0.292968 0.117188,0.410156 0.398438,0.410156 h 0.738281 c 0.292969,0 0.410156,-0.117188 0.410156,-0.410156 v -2.964844 h 0.972656 l 1.851563,3.023437 c 0.152344,0.257813 0.316406,0.351563 0.621094,0.351563 h 0.855468 c 0.257813,0 0.328125,-0.140625 0.199219,-0.351563 z m 10.576172,2.519531 v -6.292969 c 0,-0.2929687 -0.117187,-0.4101562 -0.410156,-0.4101562 H 74.18362 c -0.28125,0 -0.398437,0.1171875 -0.398437,0.4101562 v 5.894531 c 0,0.433594 -0.09375,0.527344 -0.550781,0.527344 H 70.43362 c -0.457031,0 -0.539062,-0.09375 -0.539062,-0.527344 v -5.894531 c 0,-0.2929687 -0.128906,-0.4101562 -0.410156,-0.4101562 H 68.74612 c -0.292968,0 -0.410156,0.1171875 -0.410156,0.4101562 v 6.292969 c 0,1.335937 0.527344,1.59375 1.664063,1.59375 h 3.65625 c 1.136718,0 1.664062,-0.257813 1.664062,-1.59375 z m 0,0"
         style="fill:#393536;fill-opacity:1;fill-rule:nonzero;stroke:none" /></g></g></svg>
