<?xml version="1.0" encoding="UTF-8" standalone="no"?>
<!-- Created with Inkscape (http://www.inkscape.org/) -->

<svg
   width="32.194641mm"
   height="17.175446mm"
   viewBox="0 0 32.194641 17.175445"
   version="1.1"
   id="svg1"
   xml:space="preserve"
   xmlns:inkscape="http://www.inkscape.org/namespaces/inkscape"
   xmlns:sodipodi="http://sodipodi.sourceforge.net/DTD/sodipodi-0.dtd"
   xmlns="http://www.w3.org/2000/svg"
   xmlns:svg="http://www.w3.org/2000/svg"><sodipodi:namedview
     id="namedview1"
     pagecolor="#ffffff"
     bordercolor="#000000"
     borderopacity="0.25"
     inkscape:showpageshadow="2"
     inkscape:pageopacity="0.0"
     inkscape:pagecheckerboard="0"
     inkscape:deskcolor="#d1d1d1"
     inkscape:document-units="mm"><inkscape:page
       x="2.1936616e-07"
       y="3.6899216e-06"
       width="32.194641"
       height="17.175446"
       id="page4"
       margin="0"
       bleed="0" /></sodipodi:namedview><defs
     id="defs1"><clipPath
       clipPathUnits="userSpaceOnUse"
       id="clipPath33"><path
         d="M 0,841.89 H 595.276 V 0 H 0 Z"
         transform="translate(-145.201,-527.01292)"
         id="path33" /></clipPath><clipPath
       clipPathUnits="userSpaceOnUse"
       id="clipPath35"><path
         d="M 0,841.89 H 595.276 V 0 H 0 Z"
         transform="translate(-113.95221,-517.52191)"
         id="path35" /></clipPath><clipPath
       clipPathUnits="userSpaceOnUse"
       id="clipPath37"><path
         d="M 0,841.89 H 595.276 V 0 H 0 Z"
         transform="translate(-144.54801,-520.05581)"
         id="path37" /></clipPath></defs><g
     id="layer-MC0"
     inkscape:groupmode="layer"
     inkscape:label="Vrstva 1"
     transform="matrix(0.26458333,0,0,0.26458335,-19.775304,-109.31607)"><path
       id="path1"
       d="M 552.462,464.414 H 28.036 v 85.758 h 524.426 z"
       style="fill:#231f20;fill-opacity:1;fill-rule:nonzero;stroke:none"
       transform="matrix(1.3333333,0,0,-1.3333333,0,1122.52)" /><path
       id="path32"
       d="M 0,0 H -7.111 L -10.994,-2.172 -15.03,0 h -63.686 c -1.521,0 -2.547,-0.258 -3.079,-0.775 -0.532,-0.517 -0.797,-1.399 -0.797,-2.645 0,-1.247 -0.041,-3.36 0.491,-3.891 0.532,-0.533 1.558,-0.798 3.079,-0.798 h 12.539 c 1.945,0 3.587,-0.16 4.925,-0.479 1.338,-0.319 2.417,-0.814 3.238,-1.482 0.82,-0.669 1.413,-1.513 1.778,-2.531 0.365,-1.019 0.547,-2.212 0.547,-3.579 v -1.095 c 0,-1.672 -0.182,-3.086 -0.547,-4.24 -0.365,-1.156 -0.95,-2.091 -1.756,-2.805 -0.806,-0.715 -1.862,-1.231 -3.168,-1.55 -1.308,-0.32 -2.889,-0.479 -4.743,-0.479 H -88.37 l 0.41,5.589 h 21.341 c 0.82,0 1.511,0.053 2.074,0.158 0.562,0.106 1.004,0.295 1.323,0.567 0.319,0.271 0.547,0.626 0.684,1.064 0.136,0.438 0.205,0.989 0.205,1.654 0,1.298 -0.289,2.808 -0.866,3.307 -0.578,0.498 -1.673,0.748 -3.284,0.748 h -12.722 c -1.885,0 -3.458,0.166 -4.719,0.5 -1.262,0.334 -2.28,0.849 -3.056,1.546 -0.775,0.698 -1.33,1.577 -1.664,2.638 -0.334,1.062 -0.501,2.305 -0.501,3.73 v 1.047 c 0,1.546 0.167,2.881 0.501,4.003 0.334,1.121 0.896,2.031 1.688,2.729 0.789,0.697 1.83,1.213 3.123,1.546 1.292,0.334 2.942,0.618 4.811,0.501 L 0,4.978 Z"
       style="fill:#ffffff;fill-opacity:1;fill-rule:nonzero;stroke:none"
       transform="matrix(1.3333333,0,0,-1.3333333,193.60133,419.83613)"
       clip-path="url(#clipPath33)" /><path
       id="path34"
       d="M 0,0 C 0,0.985 -0.189,1.66 -0.565,2.023 -0.941,2.387 -1.623,2.569 -2.61,2.569 h -13.439 v -7.25 H -2.61 c 0.987,0 1.669,0.193 2.045,0.581 C -0.189,-3.713 0,-3.086 0,-2.217 Z m -16.049,-9.01 v -7.848 h -4.716 V 7.356 h 18.16 c 1.385,0 2.546,-0.124 3.485,-0.37 C 1.817,6.739 2.569,6.335 3.131,5.772 3.695,5.209 4.099,4.457 4.346,3.519 4.593,2.581 4.716,1.408 4.716,0 v -2.182 c 0,-1.244 -0.124,-2.3 -0.371,-3.168 C 4.098,-6.218 3.693,-6.922 3.129,-7.461 2.565,-8.001 1.813,-8.394 0.873,-8.64 -0.068,-8.887 -1.23,-9.01 -2.618,-9.01 Z"
       style="fill:#ffffff;fill-opacity:1;fill-rule:nonzero;stroke:none"
       transform="matrix(1.3333333,0,0,-1.3333333,151.93627,432.4908)"
       clip-path="url(#clipPath35)" /><path
       id="path36"
       d="m 0,0 h -15.357 c -1.174,0 -1.966,-0.2 -2.376,-0.598 -0.411,-0.4 -0.616,-1.08 -0.616,-2.042 0,-0.962 0.205,-1.648 0.616,-2.059 0.41,-0.41 1.202,-0.615 2.376,-0.615 h 9.678 c 1.501,0 2.768,-0.123 3.801,-0.37 1.032,-0.246 1.865,-0.628 2.499,-1.144 0.633,-0.516 1.09,-1.167 1.372,-1.953 0.281,-0.786 0.422,-1.707 0.422,-2.763 v -0.845 c 0,-1.29 -0.141,-2.381 -0.422,-3.273 -0.282,-0.891 -0.733,-1.613 -1.355,-2.164 -0.622,-0.551 -1.437,-0.95 -2.446,-1.197 -1.009,-0.246 -2.229,-0.369 -3.66,-0.369 h -17.104 l 0.317,4.786 h 16.47 c 0.634,0 1.167,0.041 1.601,0.122 0.435,0.082 0.775,0.227 1.021,0.437 0.247,0.21 0.422,0.484 0.528,0.822 0.106,0.338 0.159,0.763 0.159,1.277 0,1.001 -0.224,1.695 -0.669,2.08 -0.446,0.384 -1.291,0.577 -2.534,0.577 h -9.819 c -1.456,0 -2.67,0.128 -3.643,0.386 -0.974,0.257 -1.76,0.654 -2.358,1.193 -0.599,0.538 -1.027,1.217 -1.285,2.036 -0.258,0.819 -0.387,1.779 -0.387,2.879 v 0.808 c 0,1.193 0.129,2.223 0.387,3.089 0.258,0.866 0.692,1.568 1.303,2.106 0.609,0.539 1.413,0.937 2.41,1.194 0.997,0.258 2.235,0.386 3.714,0.386 h 1.018 l 3.998,-2.172 3.863,2.172 h 6.554 z"
       style="fill:#ffffff;fill-opacity:1;fill-rule:nonzero;stroke:none"
       transform="matrix(1.3333333,0,0,-1.3333333,192.73067,429.11227)"
       clip-path="url(#clipPath37)" /><path
       id="path38"
       d="m 9.3290953,-7.981775 c 0,-1.6054688 -0.6328125,-1.9101563 -1.9804687,-1.9101563 h -4.359375 c -1.3476563,0 -1.9804688,0.3046875 -1.9804688,1.9101563 v 7.5 c 0,0.33984375 0.140625,0.48046875 0.4804688,0.48046875 h 0.8789062 c 0.3515625,0 0.4921875,-0.140625 0.4921875,-0.48046875 v -7.0195313 c 0,-0.515625 0.1054688,-0.6210937 0.6445313,-0.6210937 h 3.3398437 c 0.5390625,0 0.65625,0.1054687 0.65625,0.6210937 v 7.0195313 c 0,0.33984375 0.140625,0.48046875 0.4804688,0.48046875 h 0.8671875 c 0.3398437,0 0.4804687,-0.140625 0.4804687,-0.48046875 z M 19.5039,-1.9114625 V -7.981775 c 0,-1.6054688 -0.632812,-1.9101563 -1.980469,-1.9101563 h -5.660156 c -0.339844,0 -0.492187,0.1523438 -0.492187,0.4921875 v 0.7851563 c 0,0.3398437 0.152343,0.4921875 0.492187,0.4921875 h 5.144531 c 0.539063,0 0.644532,0.1054687 0.644532,0.6210937 v 1.3125 h -4.5 c -1.347657,0 -1.96875,0.3046875 -1.96875,1.9101563 v 2.3671875 c 0,1.60546875 0.621093,1.91015625 1.96875,1.91015625 h 4.371093 c 1.347657,0 1.980469,-0.3046875 1.980469,-1.91015625 z M 17.007806,-1.7474 h -3.351562 c -0.539063,0 -0.644531,-0.1054688 -0.644531,-0.6210938 v -1.4296875 c 0,-0.515625 0.105468,-0.6210937 0.644531,-0.6210937 h 3.996094 v 2.0507812 c 0,0.515625 -0.105469,0.6210938 -0.644532,0.6210938 z m 9.984375,-3.234375 h 4.945313 c 1.347656,0 1.980469,-0.3046875 1.980469,-1.9101563 v -4.1835937 c 0,-1.59375 -0.632813,-1.910156 -1.980469,-1.910156 h -6.304688 c -0.339843,0 -0.492187,0.152343 -0.492187,0.492187 v 12.011719 c 0,0.33984375 0.152344,0.48046875 0.492187,0.48046875 h 0.878907 c 0.339843,0 0.480468,-0.140625 0.480468,-0.48046875 z m 4.441407,-1.7460938 H 26.992181 V -11.21615 h 4.441407 c 0.539062,0 0.644531,0.105469 0.644531,0.621094 v 3.2460935 c 0,0.515625 -0.07031,0.6210937 -0.644531,0.6210937 z m 6.096679,-0.7734375 c 0,-0.515625 0.105469,-0.6210937 0.644531,-0.6210937 h 3.035157 c 0.351562,0 0.492187,-0.1523438 0.492187,-0.4921875 v -0.7851563 c 0,-0.3398437 -0.140625,-0.4921875 -0.492187,-0.4921875 h -3.550782 c -1.347656,0 -1.980468,0.3046875 -1.980468,1.9101563 v 7.5 c 0,0.33984375 0.140625,0.48046875 0.480468,0.48046875 h 0.878907 c 0.351562,0 0.492187,-0.140625 0.492187,-0.48046875 z M 51.28515,-1.9114625 V -7.981775 c 0,-1.6054688 -0.632812,-1.9101563 -1.980469,-1.9101563 h -4.371093 c -1.347657,0 -1.980469,0.3046875 -1.980469,1.9101563 v 6.0703125 c 0,1.60546875 0.632812,1.91015625 1.980469,1.91015625 h 4.371093 c 1.347657,0 1.980469,-0.3046875 1.980469,-1.91015625 z M 48.800775,-1.7474 h -3.339844 c -0.539062,0 -0.65625,-0.1054688 -0.65625,-0.6210938 v -5.1328125 c 0,-0.515625 0.117188,-0.6210937 0.65625,-0.6210937 h 3.339844 c 0.539063,0 0.644531,0.1054687 0.644531,0.6210937 v 5.1328125 c 0,0.515625 -0.105468,0.6210938 -0.644531,0.6210938 z m 12.073242,-0.1640625 v -1.96875 c 0,-1.6054688 -0.621094,-1.9101563 -1.96875,-1.9101563 h -3.550781 c -0.386719,0 -0.480469,-0.1757812 -0.480469,-0.6328125 v -1.078125 c 0,-0.515625 0.105469,-0.6210937 0.644531,-0.6210937 h 4.417969 c 0.351563,0 0.492188,-0.1523438 0.492188,-0.4921875 v -0.7851563 c 0,-0.3398437 -0.140625,-0.4921875 -0.492188,-0.4921875 h -4.921875 c -1.347656,0 -1.980469,0.3046875 -1.980469,1.9101563 v 2.0273437 c 0,1.6054688 0.632813,1.9101563 1.980469,1.9101563 h 3.363281 c 0.539063,0 0.644532,0.1054687 0.644532,0.6328125 v 1.0429687 c 0,0.515625 -0.105469,0.6210938 -0.644532,0.6210938 h -4.441406 c -0.339844,0 -0.480469,0.140625 -0.480469,0.4921875 v 0.7734375 c 0,0.33984375 0.140625,0.48046875 0.480469,0.48046875 h 4.96875 c 1.347656,0 1.96875,-0.3046875 1.96875,-1.91015625 z m 9.65625,0.65625 c 0,-0.3515625 -0.140625,-0.4921875 -0.492187,-0.4921875 h -4.628907 c -0.796875,0 -0.960937,-0.011719 -0.960937,-0.6210938 v -1.4648437 h 4.5 c 1.347656,0 1.980469,-0.3046875 1.980469,-1.8984375 v -2.25 c 0,-1.6054688 -0.632813,-1.9101563 -1.980469,-1.9101563 h -4.371094 c -1.347656,0 -1.980469,0.3046875 -1.980469,1.9101563 v 6.0703125 c 0,1.60546875 0.632813,1.91015625 1.980469,1.91015625 h 5.460938 c 0.351562,0 0.492187,-0.140625 0.492187,-0.48046875 z M 68.44433,-5.5794313 h -3.996094 v -1.921875 c 0,-0.515625 0.117187,-0.6210937 0.65625,-0.6210937 h 3.339844 c 0.539062,0 0.644531,0.1054687 0.644531,0.6210937 v 1.3007813 c 0,0.515625 -0.105469,0.6210937 -0.644531,0.6210937 z m 8.71289,0.6679688 2.847657,-4.5585938 c 0.164062,-0.2578125 0.07031,-0.421875 -0.222657,-0.421875 h -1.019531 c -0.363281,0 -0.5625,0.1171875 -0.738281,0.421875 l -2.320313,3.703125 h -1.113281 v -8.1328127 c 0,-0.339844 -0.140625,-0.480469 -0.480469,-0.480469 H 73.21972 c -0.339843,0 -0.480468,0.140625 -0.480468,0.480469 v 13.417969 c 0,0.33984375 0.140625,0.48046875 0.480468,0.48046875 h 0.890625 c 0.339844,0 0.480469,-0.140625 0.480469,-0.48046875 v -3.5507813 h 1.148438 l 2.214843,3.6210938 c 0.175782,0.3046875 0.375,0.41015625 0.738282,0.41015625 h 1.019531 c 0.304687,0 0.398437,-0.1640625 0.234375,-0.41015625 z m 12.600586,3 v -7.4882813 c 0,-0.3398437 -0.140625,-0.4921875 -0.480468,-0.4921875 H 88.41015 c -0.339844,0 -0.480469,0.1523438 -0.480469,0.4921875 v 7.03125 c 0,0.515625 -0.117187,0.6210938 -0.65625,0.6210938 h -3.339843 c -0.539063,0 -0.644532,-0.1054688 -0.644532,-0.6210938 v -7.03125 c 0,-0.3398437 -0.140625,-0.4921875 -0.492187,-0.4921875 h -0.878906 c -0.339844,0 -0.480469,0.1523438 -0.480469,0.4921875 v 7.4882813 c 0,1.60546875 0.632812,1.91015625 1.980469,1.91015625 h 4.359375 c 1.347656,0 1.980468,-0.3046875 1.980468,-1.91015625 z m 0,0"
       style="fill:#ffffff;fill-opacity:1;fill-rule:nonzero;stroke:none"
       aria-label="na Proseku"
       transform="matrix(1.3333333,0,0,1.3333333,76.7448,478.07987)" /></g></svg>
